<svg width="342" height="64" viewBox="0 0 342 64" fill="none" xmlns="http://www.w3.org/2000/svg">
<path d="M71.66 36.208C71.084 36.568 70.376 36.844 69.536 37.036C68.72 37.228 67.844 37.324 66.908 37.324C64.364 37.324 62.408 36.7 61.04 35.452C59.672 34.204 58.988 32.344 58.988 29.872V23.32H56.144V18.208H58.988V13.132H65.828V18.208H70.292V23.32H65.828V29.8C65.828 30.496 66.008 31.048 66.368 31.456C66.752 31.84 67.256 32.032 67.88 32.032C68.672 32.032 69.368 31.828 69.968 31.42L71.66 36.208ZM82.6136 17.164C85.8536 17.164 88.3256 17.908 90.0296 19.396C91.7336 20.86 92.5856 23.116 92.5856 26.164V37H86.2136V34.48C85.2296 36.376 83.3096 37.324 80.4536 37.324C78.9416 37.324 77.6336 37.06 76.5296 36.532C75.4256 36.004 74.5856 35.296 74.0096 34.408C73.4576 33.496 73.1816 32.464 73.1816 31.312C73.1816 29.464 73.8896 28.036 75.3056 27.028C76.7216 25.996 78.9056 25.48 81.8576 25.48H85.7456C85.6256 23.416 84.2456 22.384 81.6056 22.384C80.6696 22.384 79.7216 22.54 78.7616 22.852C77.8016 23.14 76.9856 23.548 76.3136 24.076L74.0096 19.432C75.0896 18.712 76.3976 18.16 77.9336 17.776C79.4936 17.368 81.0536 17.164 82.6136 17.164ZM82.3616 33.004C83.1536 33.004 83.8496 32.812 84.4496 32.428C85.0496 32.044 85.4816 31.48 85.7456 30.736V29.044H82.7936C80.8016 29.044 79.8056 29.704 79.8056 31.024C79.8056 31.624 80.0336 32.104 80.4896 32.464C80.9456 32.824 81.5696 33.004 82.3616 33.004ZM103.995 37.324C102.363 37.324 100.755 37.144 99.171 36.784C97.587 36.4 96.315 35.908 95.355 35.308L97.407 30.628C98.295 31.18 99.351 31.624 100.575 31.96C101.799 32.272 103.011 32.428 104.211 32.428C105.315 32.428 106.095 32.32 106.551 32.104C107.031 31.864 107.271 31.528 107.271 31.096C107.271 30.664 106.983 30.364 106.407 30.196C105.855 30.004 104.967 29.824 103.743 29.656C102.183 29.464 100.851 29.212 99.747 28.9C98.667 28.588 97.731 28.012 96.939 27.172C96.147 26.332 95.751 25.156 95.751 23.644C95.751 22.396 96.123 21.292 96.867 20.332C97.611 19.348 98.691 18.58 100.107 18.028C101.547 17.452 103.263 17.164 105.255 17.164C106.671 17.164 108.075 17.308 109.467 17.596C110.859 17.884 112.023 18.292 112.959 18.82L110.907 23.464C109.179 22.504 107.307 22.024 105.291 22.024C104.211 22.024 103.419 22.156 102.915 22.42C102.411 22.66 102.159 22.984 102.159 23.392C102.159 23.848 102.435 24.172 102.987 24.364C103.539 24.532 104.451 24.712 105.723 24.904C107.331 25.144 108.663 25.42 109.719 25.732C110.775 26.044 111.687 26.62 112.455 27.46C113.247 28.276 113.643 29.428 113.643 30.916C113.643 32.14 113.271 33.244 112.527 34.228C111.783 35.188 110.679 35.944 109.215 36.496C107.775 37.048 106.035 37.324 103.995 37.324ZM125.447 30.16L123.431 32.212V37H116.591V10.288H123.431V24.292L130.415 17.488H138.515L130.415 25.84L139.199 37H130.919L125.447 30.16ZM166.616 17.164C169.016 17.164 170.924 17.884 172.34 19.324C173.78 20.764 174.5 22.936 174.5 25.84V37H167.66V26.956C167.66 25.588 167.396 24.58 166.868 23.932C166.364 23.284 165.644 22.96 164.708 22.96C163.676 22.96 162.848 23.32 162.224 24.04C161.6 24.76 161.288 25.852 161.288 27.316V37H154.448V26.956C154.448 24.292 153.464 22.96 151.496 22.96C150.44 22.96 149.6 23.32 148.976 24.04C148.352 24.76 148.04 25.852 148.04 27.316V37H141.2V17.488H147.716V19.54C148.436 18.748 149.288 18.16 150.272 17.776C151.28 17.368 152.372 17.164 153.548 17.164C154.916 17.164 156.14 17.416 157.22 17.92C158.3 18.424 159.176 19.192 159.848 20.224C160.616 19.24 161.588 18.484 162.764 17.956C163.94 17.428 165.224 17.164 166.616 17.164ZM187.133 17.164C190.373 17.164 192.845 17.908 194.549 19.396C196.253 20.86 197.105 23.116 197.105 26.164V37H190.733V34.48C189.749 36.376 187.829 37.324 184.973 37.324C183.461 37.324 182.153 37.06 181.049 36.532C179.945 36.004 179.105 35.296 178.529 34.408C177.977 33.496 177.701 32.464 177.701 31.312C177.701 29.464 178.409 28.036 179.825 27.028C181.241 25.996 183.425 25.48 186.377 25.48H190.265C190.145 23.416 188.765 22.384 186.125 22.384C185.189 22.384 184.241 22.54 183.281 22.852C182.321 23.14 181.505 23.548 180.833 24.076L178.529 19.432C179.609 18.712 180.917 18.16 182.453 17.776C184.013 17.368 185.573 17.164 187.133 17.164ZM186.881 33.004C187.673 33.004 188.369 32.812 188.969 32.428C189.569 32.044 190.001 31.48 190.265 30.736V29.044H187.313C185.321 29.044 184.325 29.704 184.325 31.024C184.325 31.624 184.553 32.104 185.009 32.464C185.465 32.824 186.089 33.004 186.881 33.004ZM201.423 17.488H208.263V37H201.423V17.488ZM204.843 15.328C203.595 15.328 202.587 14.98 201.819 14.284C201.051 13.588 200.667 12.724 200.667 11.692C200.667 10.66 201.051 9.796 201.819 9.1C202.587 8.404 203.595 8.056 204.843 8.056C206.091 8.056 207.099 8.392 207.867 9.064C208.635 9.712 209.019 10.552 209.019 11.584C209.019 12.664 208.635 13.564 207.867 14.284C207.099 14.98 206.091 15.328 204.843 15.328ZM219.8 37.324C218.168 37.324 216.56 37.144 214.976 36.784C213.392 36.4 212.12 35.908 211.16 35.308L213.212 30.628C214.1 31.18 215.156 31.624 216.38 31.96C217.604 32.272 218.816 32.428 220.016 32.428C221.12 32.428 221.9 32.32 222.356 32.104C222.836 31.864 223.076 31.528 223.076 31.096C223.076 30.664 222.788 30.364 222.212 30.196C221.66 30.004 220.772 29.824 219.548 29.656C217.988 29.464 216.656 29.212 215.552 28.9C214.472 28.588 213.536 28.012 212.744 27.172C211.952 26.332 211.556 25.156 211.556 23.644C211.556 22.396 211.928 21.292 212.672 20.332C213.416 19.348 214.496 18.58 215.912 18.028C217.352 17.452 219.068 17.164 221.06 17.164C222.476 17.164 223.88 17.308 225.272 17.596C226.664 17.884 227.828 18.292 228.764 18.82L226.712 23.464C224.984 22.504 223.112 22.024 221.096 22.024C220.016 22.024 219.224 22.156 218.72 22.42C218.216 22.66 217.964 22.984 217.964 23.392C217.964 23.848 218.24 24.172 218.792 24.364C219.344 24.532 220.256 24.712 221.528 24.904C223.136 25.144 224.468 25.42 225.524 25.732C226.58 26.044 227.492 26.62 228.26 27.46C229.052 28.276 229.448 29.428 229.448 30.916C229.448 32.14 229.076 33.244 228.332 34.228C227.588 35.188 226.484 35.944 225.02 36.496C223.58 37.048 221.84 37.324 219.8 37.324ZM245.859 36.208C245.283 36.568 244.575 36.844 243.735 37.036C242.919 37.228 242.043 37.324 241.107 37.324C238.563 37.324 236.607 36.7 235.239 35.452C233.871 34.204 233.187 32.344 233.187 29.872V23.32H230.343V18.208H233.187V13.132H240.027V18.208H244.491V23.32H240.027V29.8C240.027 30.496 240.207 31.048 240.567 31.456C240.951 31.84 241.455 32.032 242.079 32.032C242.871 32.032 243.567 31.828 244.167 31.42L245.859 36.208ZM267.878 27.28C267.878 27.328 267.842 27.892 267.77 28.972H253.586C253.874 29.98 254.426 30.76 255.242 31.312C256.082 31.84 257.126 32.104 258.374 32.104C259.31 32.104 260.114 31.972 260.786 31.708C261.482 31.444 262.178 31.012 262.874 30.412L266.474 34.156C264.578 36.268 261.806 37.324 258.158 37.324C255.878 37.324 253.874 36.892 252.146 36.028C250.418 35.164 249.074 33.964 248.114 32.428C247.178 30.892 246.71 29.152 246.71 27.208C246.71 25.288 247.166 23.572 248.078 22.06C249.014 20.524 250.298 19.324 251.93 18.46C253.562 17.596 255.398 17.164 257.438 17.164C259.382 17.164 261.146 17.572 262.73 18.388C264.314 19.18 265.562 20.344 266.474 21.88C267.41 23.392 267.878 25.192 267.878 27.28ZM257.474 22.024C256.418 22.024 255.53 22.324 254.81 22.924C254.114 23.524 253.67 24.34 253.478 25.372H261.47C261.278 24.34 260.822 23.524 260.102 22.924C259.406 22.324 258.53 22.024 257.474 22.024ZM277.548 19.828C278.244 18.94 279.144 18.28 280.248 17.848C281.376 17.392 282.66 17.164 284.1 17.164V23.32C283.476 23.248 282.96 23.212 282.552 23.212C281.088 23.212 279.936 23.608 279.096 24.4C278.28 25.192 277.872 26.404 277.872 28.036V37H271.032V17.488H277.548V19.828Z" fill="black"/>
<path fill-rule="evenodd" clip-rule="evenodd" d="M45 0H0V45H45V0ZM18.5619 30.284L39.1003 7.72455V13.4871L18.9487 36.3209L15.6867 33.4421L7.20554 25.9572V20.634L18.5619 30.284Z" fill="black"/>
</svg>
